<svg xmlns="http://www.w3.org/2000/svg" viewBox="0 0 24 24" fill="#FFA116">
  <path d="M13.483 0a1.374 1.374 0 0 0-.961.438L7.116 6.226l-3.854 4.126a5.266 5.266 0 0 0-1.209 2.104 5.35 5.35 0 0 0-.125.513 5.527 5.527 0 0 0 .062 2.362 5.83 5.83 0 0 0 .349 1.017 5.938 5.938 0 0 0 1.271 1.818l4.277 4.193.039.038c2.248 2.165 5.852 2.133 8.063-.074l2.396-2.392c.54-.54.54-1.414 0-1.953l-6.334-6.027c-.46-.477-.46-1.254 0-1.731L14.75 5.14a1.373 1.373 0 0 0 .023-1.888 1.396 1.396 0 0 0-1.29-.395z"/>
  <path d="M22.25 10.73h-7.697a1.375 1.375 0 0 0 0 2.75h7.697a1.375 1.375 0 0 0 0-2.75z"/>
</svg>
